# xmcd CD database file
#
# Track frame offsets:
#	150
#	24249
#	43492
#	60527
#	77063
#	97606
#	120380
#	140286
#	163619
#	183701
#	199667
#	216310
#	232799
#	245972
#	261337
#	275137
#	289458
#	309536
#	329154
#
# Disc length: 4637 seconds
#
# Revision: 2
# Processed by: cddbd v1.5.2PL0 Copyright (c) Steve Scherf et al.
# Submitted via: CDex 1.51
#
DISCID=23121b13
DTITLE=MONKEY MAJIK - ENGLISH BEST
DYEAR=1900
DGENRE=Blues
TTITLE0=Headlight
TTITLE1=Together
TTITLE2=SORAWAMARUDE
TTITLE3=NIJIIRONOSAKANA
TTITLE4=Change
TTITLE5=U.F.O
TTITLE6=Black Hole
TTITLE7=HERO
TTITLE8=AISHITERU
TTITLE9=MAHOUNOKOTOBA
TTITLE10=Around The World
TTITLE11=Pretty People
TTITLE12=The Man You were
TTITLE13=goin' place
TTITLE14=Fall Back
TTITLE15=MONSTER
TTITLE16=Everything is going be alright
TTITLE17=fly
TTITLE18=Open Happiness
EXTD=
EXTT0=
EXTT1=
EXTT2=
EXTT3=
EXTT4=
EXTT5=
EXTT6=
EXTT7=
EXTT8=
EXTT9=
EXTT10=
EXTT11=
EXTT12=
EXTT13=
EXTT14=
EXTT15=
EXTT16=
EXTT17=
EXTT18=
PLAYORDER=
